<svg width="112" height="14" viewBox="0 0 112 14" fill="none" xmlns="http://www.w3.org/2000/svg">
<path d="M58.5797 13.2923H59.7266L60.8137 10.8193H64.7682L65.8553 13.2923H67.0142L63.2509 4.81003H62.331L58.5797 13.2923ZM61.2438 9.81579L62.785 6.31534L64.3261 9.81579H61.2438Z" fill="#395BB6"/>
<path d="M68.2062 13.2923H70.6433C73.2478 13.2923 75.1593 11.4764 75.1593 9.05118C75.1593 6.62596 73.2478 4.81003 70.6433 4.81003H68.2062V13.2923ZM69.3172 12.253V5.84941H70.6433C72.6863 5.84941 74.0363 7.21136 74.0363 9.05118C74.0363 10.891 72.6863 12.253 70.6433 12.253H69.3172Z" fill="#395BB6"/>
<path d="M79.1405 13.2923H80.0724L83.6803 4.81003H82.4737L79.6184 11.5481L76.7511 4.81003H75.5206L79.1405 13.2923Z" fill="#395BB6"/>
<path d="M84.9249 13.2923H86.0359V4.81003H84.9249V13.2923Z" fill="#395BB6"/>
<path d="M87.592 11.9065C88.034 12.7786 89.169 13.4357 90.5668 13.4357C92.1438 13.4357 93.2668 12.5277 93.2668 11.0822C93.2668 9.82773 92.55 9.11092 91.2955 8.63304L90.2681 8.23879C89.4079 7.91623 88.9898 7.59366 88.9898 6.87684C88.9898 6.17198 89.6827 5.70605 90.519 5.70605C91.2478 5.70605 91.7734 6.02861 92.2035 6.54233L93.0159 5.82552C92.4902 5.14454 91.6062 4.66666 90.5429 4.66666C89.0256 4.66666 87.8907 5.53879 87.8907 6.92463C87.8907 8.08348 88.488 8.7764 89.8141 9.26623L90.9371 9.69632C91.7256 9.99499 92.1557 10.449 92.1557 11.1299C92.1557 11.9184 91.4628 12.3963 90.5907 12.3963C89.6349 12.3963 88.942 11.9543 88.488 11.2375L87.592 11.9065Z" fill="#395BB6"/>
<path d="M103.084 9.05118C103.084 6.59012 101.148 4.66666 98.6992 4.66666C96.262 4.66666 94.3147 6.59012 94.3147 9.05118C94.3147 11.5122 96.262 13.4357 98.6992 13.4357C101.148 13.4357 103.084 11.5122 103.084 9.05118ZM95.4377 9.05118C95.4377 7.18746 96.8474 5.71799 98.6992 5.71799C100.563 5.71799 101.973 7.18746 101.973 9.05118C101.973 10.9149 100.563 12.3844 98.6992 12.3844C96.8474 12.3844 95.4377 10.9149 95.4377 9.05118Z" fill="#395BB6"/>
<path d="M104.759 13.2923H105.87V9.43349H106.694L109.956 13.2923H111.353L108.092 9.42154C109.394 9.23039 110.183 8.3941 110.183 7.15162C110.183 5.75383 109.215 4.81003 107.65 4.81003H104.759V13.2923ZM105.87 8.44189V5.83746H107.518C108.486 5.83746 109.071 6.29145 109.071 7.15162C109.071 7.99985 108.486 8.44189 107.518 8.44189H105.87Z" fill="#395BB6"/>
<path d="M53.2358 9.45911C52.9113 8.81016 52.3165 8.37212 51.0727 7.84756C50.056 7.42034 49.5422 7.12831 49.2286 6.78761C48.9744 6.51181 48.8987 6.28468 48.9257 5.87368C48.9473 5.48972 49.0447 5.26259 49.2826 5.00842C49.5909 4.67853 50.0127 4.56497 50.521 4.67313C51.3539 4.84618 51.8838 5.42482 52.3435 6.6416C52.5057 7.07423 52.5274 7.09045 52.8194 6.9823L53.0033 6.91199L52.9979 6.41447C52.9925 6.13866 52.9816 5.56002 52.9654 5.1328L52.9438 4.33784L52.8032 4.27835C52.0407 3.95388 50.5913 3.75378 49.6504 3.84031C48.5796 3.93765 47.7901 4.27835 47.1844 4.90566C46.5841 5.52757 46.3083 6.26305 46.357 7.13372C46.3948 7.85297 46.6111 8.37212 47.0546 8.82098C47.4656 9.24279 47.8117 9.44289 48.8013 9.82685C50.3967 10.4488 50.8239 10.8219 50.8185 11.5898C50.8185 12.2388 50.4724 12.7147 49.8451 12.9364C49.6233 13.0175 49.0555 13.0175 48.7527 12.9364C47.9577 12.7255 47.352 12.0387 46.8329 10.7624L46.6977 10.4379L46.5408 10.4433C46.4543 10.4488 46.3353 10.4758 46.2813 10.5028L46.1731 10.5515L46.1839 11.1085C46.1893 11.4168 46.2055 12.0603 46.2164 12.547L46.238 13.4231L46.4165 13.4988C46.7788 13.6556 47.8712 13.8936 48.5526 13.9693C48.6391 13.9801 49.1042 13.9801 49.5909 13.9747C50.4345 13.9639 50.494 13.9585 50.9212 13.8503C52.1759 13.5204 52.987 12.8228 53.344 11.7629C53.4521 11.4384 53.4684 11.3356 53.4846 10.8543C53.5062 10.2162 53.4467 9.88093 53.2358 9.45911Z" fill="black"/>
<path d="M43.5449 4.19644C42.4903 3.66647 40.8572 3.70432 39.662 4.28838C38.5318 4.83998 37.753 5.75932 37.3204 7.05722C37.0933 7.73321 37.023 8.27941 37.0446 9.15548C37.0608 9.70709 37.0825 9.99371 37.1419 10.2533C37.5854 12.2434 38.9536 13.5954 40.8572 13.9415C41.279 14.0172 42.2308 14.0172 42.658 13.9469C43.2637 13.8387 43.9613 13.5737 44.4047 13.2709C44.9401 12.9086 45.4971 12.3624 45.4971 12.1893C45.4971 12.0866 45.3133 11.8486 45.2322 11.8486C45.1997 11.8486 45.0483 11.9243 44.9023 12.0217C44.3777 12.3624 43.8748 12.503 43.1717 12.503C42.2091 12.503 41.5926 12.2596 40.9815 11.6431C40.7112 11.3673 40.5976 11.2213 40.457 10.9455C40.1487 10.3452 39.9811 9.65842 39.954 8.87968L39.9432 8.54439L45.6323 8.52276L45.6432 8.32808C45.6486 8.21992 45.6377 7.94412 45.6107 7.71158C45.4322 5.98105 44.7346 4.79131 43.5449 4.19644ZM40.6787 7.70076L39.9595 7.71158V7.55475C39.9595 7.46822 39.9865 7.24109 40.0135 7.05181C40.2515 5.50515 40.8301 4.575 41.5548 4.575C42.22 4.575 42.631 5.48893 42.7175 7.16538L42.7391 7.64127L42.0685 7.6629C41.7008 7.67913 41.0735 7.69535 40.6787 7.70076Z" fill="black"/>
<path d="M33.2352 4.01266C33.0081 3.96399 32.8026 3.95858 32.3646 3.9694C31.6994 3.99103 31.2451 4.09378 30.7476 4.32091C30.5854 4.39662 30.4394 4.46151 30.4285 4.46151C30.4177 4.46151 30.4177 3.45565 30.4339 2.23346C30.4502 0.502936 30.4448 2.18404e-06 30.4069 2.18404e-06C30.2825 2.18404e-06 26.3564 0.746291 26.3131 0.778739C26.2807 0.805778 26.2699 0.886897 26.2753 1.01128C26.2861 1.22759 26.2645 1.21137 26.7404 1.31953C26.8864 1.35198 27.054 1.41687 27.1135 1.46013C27.2757 1.5737 27.4055 1.82246 27.4975 2.17398C27.5678 2.44978 27.5786 2.64987 27.611 4.53722C27.6435 6.46243 27.6381 8.43631 27.584 12.0596L27.5624 13.563L27.8436 13.6279C28.2492 13.7198 29.4173 13.9145 29.7958 13.9524C30.3528 14.0119 31.6615 14.001 32.0725 13.9416C33.8788 13.6712 35.2362 12.622 35.8689 11.0213C36.0365 10.5941 36.1988 9.93971 36.2528 9.45841C36.3177 8.89058 36.2799 7.74951 36.1825 7.28984C35.8094 5.53228 34.717 4.32091 33.2352 4.01266ZM30.4934 13.0871C30.4448 12.9573 30.3853 8.45254 30.4069 6.65171L30.4231 5.24566L30.6773 5.16995C30.8449 5.12128 31.045 5.09424 31.2776 5.09424C31.602 5.09424 31.6453 5.10505 31.9211 5.24025C32.5809 5.56472 33.0351 6.38132 33.246 7.61432C33.3218 8.06858 33.3326 9.3178 33.2623 9.864C33.0892 11.2052 32.6512 12.2921 32.0671 12.8167C31.8346 13.0276 31.6183 13.1358 31.3371 13.1899C31.137 13.2277 31.0721 13.2277 30.7097 13.2007C30.5583 13.1899 30.5259 13.1736 30.4934 13.0871Z" fill="black"/>
<path d="M25.8985 3.80735C25.4497 3.80735 25.2117 3.85603 24.8494 4.02367C24.1896 4.32651 23.6975 4.81863 23.2541 5.619L23.1134 5.86776L23.1297 5.42431C23.1405 5.18096 23.1567 4.7267 23.1675 4.41304L23.1838 3.84521H23.0918C22.9728 3.84521 19.1603 4.60772 19.0467 4.65639C18.971 4.68884 18.9602 4.72129 18.9602 4.90516C18.9602 5.09443 18.971 5.11606 19.0467 5.13229C19.0954 5.1431 19.2684 5.17555 19.4361 5.208C19.7714 5.27289 19.8741 5.32697 20.0147 5.51084C20.2689 5.85154 20.323 6.44641 20.323 8.98271C20.323 11.0539 20.2797 12.0868 20.177 12.4113C20.058 12.8061 19.8417 13.0116 19.4685 13.0765C19.3496 13.0981 19.1873 13.1306 19.117 13.1468L18.9818 13.1738L18.971 13.4388C18.9656 13.6227 18.9764 13.7146 19.0089 13.7362C19.0359 13.7525 20.3392 13.7633 21.9021 13.7579L24.7466 13.7471L24.7574 13.4496C24.7629 13.2874 24.7575 13.1522 24.7358 13.1522C24.5141 13.1522 23.8381 13.0603 23.7299 13.017C23.4109 12.8818 23.2541 12.5952 23.1892 12.0111C23.108 11.3243 23.0648 9.61543 23.0864 8.2202C23.108 6.80874 23.108 6.80333 23.1946 6.70599C23.4001 6.48426 23.9246 6.31121 24.3897 6.31121C24.7629 6.31121 25.1522 6.40855 25.5632 6.60324C25.7633 6.70058 25.9418 6.76547 25.9688 6.76006C26.0229 6.73843 26.9531 4.27243 26.9531 4.15887C26.9585 3.98041 26.4285 3.80735 25.8985 3.80735Z" fill="black"/>
<path d="M18.9658 8.09581C18.7657 6.38691 18.041 5.13769 16.8459 4.43466C15.5209 3.65593 13.5038 3.60726 12.0707 4.32651C11.0378 4.84566 10.1888 5.84613 9.81561 6.9926C9.42624 8.17693 9.42624 9.7344 9.81561 10.9458C10.0644 11.7191 10.3997 12.2869 10.9188 12.8007C11.5407 13.4172 12.3573 13.812 13.2875 13.9472C13.6228 13.9958 14.6719 13.9958 15.018 13.9472C15.1802 13.9255 15.4615 13.8606 15.6453 13.812C17.338 13.3198 18.4899 12.0219 18.8846 10.1616C18.9874 9.71818 19.0253 8.61497 18.9658 8.09581ZM14.6881 13.2117C13.639 13.5253 12.8873 12.5249 12.5953 10.4266C12.5033 9.75063 12.5033 7.90113 12.5953 7.1278C12.8008 5.44053 13.3199 4.58609 14.1419 4.58068C14.5097 4.58068 14.7152 4.67261 15.0072 4.95923C15.694 5.65144 16.0239 6.97638 16.0185 9.05841C16.0131 10.7186 15.8508 11.7624 15.4777 12.4708C15.2938 12.8115 14.9585 13.1306 14.6881 13.2117Z" fill="black"/>
<path d="M5.14182 1.09711H6.36711C7.7729 1.09711 8.00264 1.1249 8.50041 1.37501C9.22246 1.73628 9.74758 2.44771 10.2125 3.68715C10.3985 4.19293 10.3985 4.18737 10.8142 4.05954L11.0932 3.97617L11.0659 2.15314C11.0494 1.15269 11.0276 0.25785 11.0166 0.168921L10.9893 0.0132965L5.62318 0.00218044C2.66937 -0.00337758 0.196921 0.00218044 0.131281 0.0132965L0 0.0355286L0.0218801 0.680259L0.432132 0.730282C0.962724 0.796978 1.27999 0.947045 1.46597 1.22495C1.88716 1.853 1.96374 2.70894 1.96374 6.7663C1.96374 11.0904 1.87622 12.1409 1.46597 12.6856C1.25264 12.969 1.08306 13.058 0.607172 13.1469C-0.0164101 13.2636 0.00547002 13.247 0.00547002 13.5749C0.00547002 13.7583 0.0218801 13.8528 0.0547002 13.8694C0.125811 13.8972 6.99069 13.9028 7.0618 13.8694C7.15479 13.8305 7.14932 13.3192 7.05633 13.2692C7.01804 13.247 6.7883 13.2025 6.54215 13.1636C6.296 13.1247 6.02249 13.0635 5.94044 13.0246C5.4919 12.8245 5.24028 12.2743 5.14729 11.2794C5.08165 10.568 5.02695 9.25073 5.02695 8.27808V7.38879L5.44267 7.39991C6.33429 7.4277 6.79377 7.47772 6.97975 7.56109C7.38453 7.74451 7.70726 8.24473 7.87683 8.9506L7.96435 9.32854L8.59887 9.35078V4.60978L7.96435 4.63201L7.87136 5.0044C7.69085 5.7325 7.40094 6.17714 6.96881 6.38279C6.79377 6.46616 6.66796 6.48839 6.24677 6.51618C5.96779 6.53286 5.57942 6.54953 5.37703 6.54953H5.01601V5.37123C5.01601 4.19293 5.07618 1.69182 5.11994 1.30276L5.14182 1.09711Z" fill="black"/>
</svg>
