<svg width="141" height="28" viewBox="0 0 141 28" fill="none" xmlns="http://www.w3.org/2000/svg">
<path fill-rule="evenodd" clip-rule="evenodd" d="M3.90374 19.3237L8.95836 20.6493V21.4732L5.00412 23.778L0.000113566 22.4657V21.5994L3.90374 19.3237ZM4.08278 20.6354L2.14685 21.764L4.82513 22.4664L6.76129 21.3378L4.08278 20.6354Z" fill="#4817C2"/>
<path fill-rule="evenodd" clip-rule="evenodd" d="M8.95838 20.0571V25.7043L5.0201 28L4.30298 27.8471V22.7706L8.95838 20.0571ZM5.52632 23.4735V26.2889L7.73504 25.0014V22.1861L5.52632 23.4735Z" fill="#4817C2"/>
<path d="M4.91462 23.1221V27.3521L0.611786 26.2236V21.9936L4.91462 23.1221Z" fill="#4817C2"/>
<path fill-rule="evenodd" clip-rule="evenodd" d="M0.238135 21.5093C0.388241 21.3935 0.583566 21.3538 0.766955 21.4019L5.06979 22.5304C5.33875 22.6009 5.5263 22.844 5.5263 23.1221V27.3521C5.5263 27.5417 5.43838 27.7206 5.28827 27.8364C5.13817 27.9522 4.94284 27.9919 4.75945 27.9438L0.456616 26.8153C0.187657 26.7448 0.000113566 26.5017 0.000113566 26.2236V21.9936C0.000113566 21.804 0.0880292 21.6251 0.238135 21.5093ZM1.22346 22.7864V25.7517L4.30295 26.5593V23.594L1.22346 22.7864Z" fill="#4817C2"/>
<path d="M13.8857 17.361V22.478L0.612794 18.9059H0.61169V13.789L6.7968 15.4541H6.7979L13.8857 17.361Z" fill="#4817C2"/>
<path fill-rule="evenodd" clip-rule="evenodd" d="M0.239599 13.3036C0.390626 13.1878 0.58692 13.1489 0.770664 13.1984L6.93895 14.859C6.94493 14.8604 6.95088 14.8619 6.95682 14.8635L14.0446 16.7703C14.3117 16.8422 14.4974 17.0844 14.4974 17.361V22.478C14.4974 22.6683 14.4088 22.8477 14.2578 22.9635C14.1068 23.0792 13.9105 23.1181 13.7267 23.0686L0.474734 19.5022C0.202855 19.44 1.75424e-05 19.1966 1.75424e-05 18.9059V13.789C1.75424e-05 13.5988 0.0885727 13.4193 0.239599 13.3036ZM1.22336 14.5871V18.4368L13.274 21.6799V17.8299L6.65606 16.0494C6.64987 16.0479 6.6437 16.0464 6.63756 16.0447L1.22336 14.5871Z" fill="#4817C2"/>
<path fill-rule="evenodd" clip-rule="evenodd" d="M5.72515 10.2346C5.8643 10.1569 6.02826 10.1367 6.18215 10.1781L19.4562 13.749C19.6966 13.8137 19.8738 14.0175 19.9043 14.2645C19.9349 14.5115 19.8128 14.7524 19.5955 14.8737L14.1839 17.8951C14.0447 17.9728 13.8807 17.9931 13.7268 17.9517L6.65606 16.0494C6.64987 16.0479 6.6437 16.0464 6.63756 16.0447L0.452716 14.3797C0.212376 14.315 0.0351979 14.1111 0.00464397 13.8641C-0.02591 13.6171 0.0962534 13.3762 0.313588 13.2549L5.72515 10.2346ZM6.10434 11.424L2.22413 13.5896L6.93895 14.859C6.94493 14.8604 6.95088 14.8619 6.95682 14.8635L13.8046 16.7058L17.6849 14.5393L6.10434 11.424Z" fill="#4817C2"/>
<path fill-rule="evenodd" clip-rule="evenodd" d="M19.6069 13.8122C19.7941 13.922 19.909 14.1227 19.909 14.3397V19.4576C19.909 19.6793 19.789 19.8836 19.5955 19.9917L14.1849 23.0121C14.0938 23.0629 13.9912 23.0897 13.8868 23.0897H13.8857C13.5479 23.0897 13.274 22.8158 13.274 22.478V17.361C13.274 17.1393 13.394 16.935 13.5875 16.8269L18.9991 13.8056C19.1886 13.6998 19.4198 13.7023 19.6069 13.8122ZM14.4974 17.7201V21.4366L18.6856 19.0985V15.3817L14.4974 17.7201Z" fill="#4817C2"/>
<path d="M21.4716 9.76971L21.4163 9.80315V15.6817L16.0919 14.2529L16.0817 14.2503L6.01828 11.5496L0.612976 10.0951H0.61169V4.1715L21.4716 9.76971Z" fill="#4817C2"/>
<path fill-rule="evenodd" clip-rule="evenodd" d="M0.239418 3.68616C0.390338 3.5704 0.58652 3.53144 0.770223 3.58073L21.6302 9.17895C21.8669 9.2425 22.0428 9.44121 22.0772 9.68389C22.094 9.80215 22.0755 9.91973 22.0279 10.0239V15.6817C22.0279 15.8719 21.9395 16.0513 21.7885 16.167C21.6376 16.2828 21.4414 16.3218 21.2577 16.2725L15.9385 14.845L15.9334 14.8437C15.93 14.8429 15.9266 14.842 15.9232 14.8411L6.05671 12.1932L6.05649 12.1931L0.475927 10.6916C0.203448 10.6299 1.75424e-05 10.3862 1.75424e-05 10.0951V4.1715C1.75424e-05 3.9813 0.0884984 3.80192 0.239418 3.68616ZM20.8046 10.224L15.9232 8.91366L1.22336 4.96896V9.6259L16.2352 13.6582L16.2403 13.6595C16.2437 13.6603 16.2471 13.6612 16.2505 13.6621L20.8046 14.8842V10.224Z" fill="#4817C2"/>
<path fill-rule="evenodd" clip-rule="evenodd" d="M0.239603 3.64614C0.390633 3.53039 0.586929 3.49152 0.770674 3.54098L7.961 5.47678C7.96744 5.47829 7.97385 5.4799 7.98023 5.48162L16.2406 7.70392C16.5078 7.77579 16.6934 8.01798 16.6934 8.29459V8.32289C16.6934 8.51309 16.6049 8.69247 16.454 8.80823C16.3031 8.92399 16.1069 8.96296 15.9232 8.91366L0.453156 4.76226C0.185852 4.69053 1.75424e-05 4.44827 1.75424e-05 4.1715V4.13162C1.75424e-05 3.94134 0.0885744 3.76189 0.239603 3.64614Z" fill="#4817C2"/>
<path fill-rule="evenodd" clip-rule="evenodd" d="M5.62437 11.4435C5.71203 11.1174 6.04744 10.924 6.37363 11.0115L16.2403 13.6595C16.5076 13.7312 16.6934 13.9736 16.6934 14.2503V14.258C16.6934 14.4483 16.6048 14.6277 16.4538 14.7435C16.3028 14.8592 16.1065 14.8981 15.9227 14.8486L6.0561 12.193C5.72997 12.1052 5.53671 11.7697 5.62437 11.4435Z" fill="#4817C2"/>
<path fill-rule="evenodd" clip-rule="evenodd" d="M6.62042 0.0775574C6.75945 -3.96805e-05 6.92327 -0.0203645 7.07705 0.0209016L27.6373 5.53809C27.9046 5.60982 28.0904 5.8521 28.0904 6.12886V6.1533C28.0904 6.36783 27.9781 6.56668 27.7943 6.67733L22.704 9.74199L21.7869 10.2938C21.6446 10.3795 21.4735 10.4035 21.313 10.3604L15.9232 8.91366C15.8626 8.8974 15.8062 8.87235 15.7552 8.84015L7.68067 6.66786C7.67403 6.6663 7.66741 6.66464 7.66082 6.66286L0.452705 4.72226C0.212368 4.65757 0.0351939 4.4537 0.00464305 4.20669C-0.0259078 3.95968 0.0962572 3.71879 0.313591 3.5975L6.62042 0.0775574ZM6.9998 1.2668L2.22411 3.93218L7.961 5.47678C7.96744 5.47829 7.97385 5.4799 7.98023 5.48162L16.2406 7.70392C16.301 7.72016 16.3572 7.74508 16.408 7.77714L21.379 9.11152L25.959 6.35434L6.9998 1.2668Z" fill="#4817C2"/>
<path fill-rule="evenodd" clip-rule="evenodd" d="M15.7053 13.7682C15.8537 13.6523 16.0473 13.6112 16.2301 13.6569L16.2403 13.6595C16.4829 13.7201 16.6642 13.9224 16.698 14.1702C16.7318 14.418 16.6114 14.6614 16.3938 14.7849L16.3848 14.79C16.2928 14.8422 16.1888 14.8697 16.0829 14.8697H16.0817C15.7439 14.8697 15.4701 14.5958 15.4701 14.258V14.2503C15.4701 14.062 15.5568 13.8841 15.7053 13.7682Z" fill="#4817C2"/>
<path fill-rule="evenodd" clip-rule="evenodd" d="M27.7797 5.62077C27.9717 5.72928 28.0904 5.93277 28.0904 6.1533V12.0203C28.0904 12.2348 27.978 12.4337 27.7942 12.5443L22.2789 15.864C22.2686 15.8711 22.258 15.8779 22.2471 15.8845L21.7314 16.1944C21.5424 16.308 21.307 16.3111 21.1151 16.2025C20.9232 16.094 20.8046 15.8906 20.8046 15.6701V9.8031C20.8046 9.58898 20.9166 9.39045 21.0998 9.27967L21.1551 9.24623L27.1633 5.62925C27.3522 5.5155 27.5877 5.51226 27.7797 5.62077ZM22.0279 14.5872L26.8671 11.6745V7.23552L22.704 9.74199L22.0279 10.1488V14.5872Z" fill="#4817C2"/>
<path d="M39.0519 8.80184C37.5055 8.68531 36.7319 9.30518 36.7319 10.6622V10.7716H39.0519V13.4855H36.7319V21.7147H33.9086V13.4855H32.3328V10.7716H33.9086V10.6622C33.9086 9.11572 34.3389 7.94104 35.1998 7.13885C36.0605 6.33596 37.3447 5.98563 39.0519 6.08787V8.80184Z" fill="black"/>
<path d="M49.2514 20.3464C48.1276 21.4624 46.7562 22.0208 45.1368 22.0208C43.5175 22.0208 42.1497 21.4624 41.033 20.3464C39.9169 19.2303 39.3586 17.8626 39.3586 16.2425C39.3586 14.6224 39.9169 13.2547 41.033 12.1387C42.149 11.0226 43.5175 10.4642 45.1368 10.4642C46.7562 10.4642 48.1276 11.0226 49.2514 12.1387C50.3748 13.2547 50.9366 14.6224 50.9366 16.2425C50.9366 17.8626 50.3748 19.2303 49.2514 20.3464ZM43.0249 18.4095C43.5862 18.9787 44.2903 19.2632 45.1368 19.2632C45.9834 19.2632 46.6912 18.9787 47.2603 18.4095C47.8295 17.8405 48.114 17.1183 48.114 16.2425C48.114 15.3667 47.8295 14.6446 47.2603 14.0755C46.6912 13.5064 45.9834 13.2218 45.1368 13.2218C44.2903 13.2218 43.5862 13.5064 43.0249 14.0755C42.463 14.6446 42.182 15.3667 42.182 16.2425C42.182 17.1183 42.463 17.8405 43.0249 18.4095Z" fill="black"/>
<path d="M55.7511 12.6533C56.0135 11.9527 56.4475 11.4279 57.053 11.0776C57.6585 10.7273 58.3336 10.5528 59.0779 10.5528V13.7043C58.217 13.6021 57.4476 13.7773 56.7685 14.2291C56.0901 14.6817 55.7511 15.4331 55.7511 16.4834V21.7139H52.9277V10.7709H55.7511V12.6533Z" fill="black"/>
<path d="M72.8211 10.4641C74.0758 10.4641 75.0789 10.8724 75.8303 11.6896C76.5817 12.5068 76.9579 13.6006 76.9579 14.9726V21.7132H74.1344V15.1692C74.1344 14.5129 73.9735 14.0024 73.6533 13.6371C73.3323 13.2725 72.8797 13.0902 72.2962 13.0902C71.6543 13.0902 71.1545 13.3018 70.7971 13.725C70.4397 14.1483 70.2608 14.761 70.2608 15.5632V21.7132H67.4375V15.1692C67.4375 14.5129 67.2767 14.0024 66.9563 13.6371C66.6352 13.2725 66.1826 13.0902 65.5994 13.0902C64.9716 13.0902 64.4717 13.3018 64.1 13.725C63.7283 14.1483 63.5417 14.761 63.5417 15.5632V21.7132H60.7182V10.7708H63.5417V11.9312C64.198 10.9539 65.2124 10.4648 66.5839 10.4648C67.9551 10.4648 68.9181 10.9896 69.5601 12.0406C70.2895 10.9903 71.3769 10.4648 72.8211 10.4648V10.4641Z" fill="black"/>
<path d="M87.6823 10.771H90.5056V21.7141H87.6823V20.4229C86.8357 21.4882 85.6467 22.0208 84.1146 22.0208C82.5825 22.0208 81.4042 21.4624 80.3611 20.3464C79.318 19.2303 78.7961 17.8626 78.7961 16.2425C78.7961 14.6224 79.318 13.2547 80.3611 12.1387C81.4042 11.0226 82.6555 10.4642 84.1146 10.4642C85.6467 10.4642 86.8357 10.9969 87.6823 12.0622V10.771ZM82.473 18.4639C83.0422 19.0409 83.7643 19.3283 84.6402 19.3283C85.516 19.3283 86.2409 19.0402 86.818 18.4639C87.3942 17.8876 87.6823 17.1477 87.6823 16.2425C87.6823 15.3374 87.3942 14.5974 86.818 14.0211C86.2409 13.4449 85.516 13.1568 84.6402 13.1568C83.7643 13.1568 83.0422 13.4449 82.473 14.0211C81.9041 14.5974 81.6194 15.3381 81.6194 16.2425C81.6194 17.1469 81.9041 17.8876 82.473 18.4639Z" fill="black"/>
<path d="M99.3247 13.4853H96.8517V18.0381C96.8517 18.4177 96.946 18.6944 97.1362 18.8696C97.3257 19.0448 97.6031 19.1434 97.9678 19.1656C98.3324 19.187 98.785 19.1842 99.3247 19.1549V21.7158C97.3843 21.9346 96.0158 21.7524 95.2208 21.1689C94.4251 20.5855 94.0284 19.5424 94.0284 18.0395V13.4867H92.1243V10.7727H94.0284V8.5621L96.8517 7.70845V10.7727H99.3247V13.4867V13.4853Z" fill="black"/>
<path d="M102.718 9.45813C102.251 9.45813 101.845 9.28655 101.503 8.94409C101.16 8.6009 100.989 8.19625 100.989 7.72937C100.989 7.26252 101.16 6.85427 101.503 6.50394C101.845 6.15361 102.251 5.97916 102.718 5.97916C103.184 5.97916 103.611 6.15432 103.954 6.50394C104.297 6.85427 104.469 7.26252 104.469 7.72937C104.469 8.19625 104.298 8.6009 103.954 8.94409C103.611 9.28727 103.199 9.45813 102.718 9.45813ZM101.317 21.7145V10.7715H104.14V21.7145H101.317Z" fill="black"/>
<path d="M116.047 20.3462C114.923 21.4623 113.552 22.0206 111.932 22.0206C110.313 22.0206 108.945 21.4623 107.828 20.3462C106.713 19.2302 106.154 17.8625 106.154 16.2424C106.154 14.6223 106.713 13.2546 107.828 12.1385C108.945 11.0225 110.313 10.4641 111.932 10.4641C113.552 10.4641 114.923 11.0225 116.047 12.1385C117.17 13.2546 117.732 14.6223 117.732 16.2424C117.732 17.8625 117.17 19.2302 116.047 20.3462ZM109.82 18.4094C110.382 18.9785 111.086 19.2631 111.932 19.2631C112.779 19.2631 113.487 18.9785 114.056 18.4094C114.625 17.8403 114.909 17.1182 114.909 16.2424C114.909 15.3666 114.625 14.6445 114.056 14.0754C113.487 13.5063 112.779 13.2217 111.932 13.2217C111.086 13.2217 110.382 13.5063 109.82 14.0754C109.259 14.6445 108.977 15.3666 108.977 16.2424C108.977 17.1182 109.259 17.8403 109.82 18.4094Z" fill="black"/>
<path d="M125.808 10.4641C127.004 10.4641 127.993 10.8652 128.773 11.6681C129.554 12.471 129.944 13.5799 129.944 14.9948V21.7139H127.121V15.3451C127.121 14.6159 126.924 14.0575 126.53 13.6707C126.136 13.2839 125.611 13.0909 124.955 13.0909C124.225 13.0909 123.641 13.3175 123.204 13.7693C122.766 14.2219 122.547 14.8997 122.547 15.8049V21.7139H119.724V10.7708H122.547V11.9963C123.233 10.9753 124.321 10.4641 125.808 10.4641H125.808Z" fill="black"/>
<path d="M134.955 13.8796C134.955 14.172 135.148 14.4086 135.535 14.591C135.921 14.7733 136.392 14.9341 136.947 15.0721C137.501 15.2108 138.055 15.386 138.61 15.5969C139.164 15.8085 139.634 16.1624 140.021 16.6586C140.408 17.1548 140.601 17.7747 140.601 18.5189C140.601 19.6428 140.181 20.5072 139.342 21.1121C138.503 21.7177 137.456 22.0208 136.202 22.0208C133.955 22.0208 132.422 21.1528 131.605 19.4162L134.057 18.037C134.378 18.9858 135.093 19.4598 136.202 19.4598C137.208 19.4598 137.711 19.1466 137.711 18.5189C137.711 18.2272 137.518 17.9906 137.132 17.8075C136.745 17.6252 136.275 17.4608 135.72 17.3149C135.166 17.1691 134.612 16.9868 134.057 16.7673C133.502 16.5485 133.031 16.2017 132.645 15.7277C132.259 15.2537 132.065 14.6589 132.065 13.9439C132.065 12.8643 132.463 12.0142 133.258 11.3937C134.053 10.7738 135.042 10.4635 136.224 10.4635C137.114 10.4635 137.923 10.6644 138.653 11.0655C139.382 11.4673 139.959 12.0393 140.382 12.7835L137.975 14.0969C137.624 13.3527 137.041 12.9809 136.224 12.9809C135.859 12.9809 135.556 13.061 135.315 13.2218C135.074 13.3827 134.954 13.6015 134.954 13.8781L134.955 13.8796Z" fill="black"/>
</svg>
